<?xml version="1.0" encoding="UTF-8" standalone="no"?>
<!DOCTYPE svg PUBLIC "-//W3C//DTD SVG 1.1//EN"
 "http://www.w3.org/Graphics/SVG/1.1/DTD/svg11.dtd">
<!-- Generated by graphviz version 2.47.3 (20210619.1520)
 -->
<!-- Title: dependencies Pages: 1 -->
<svg width="428pt" height="174pt"
 viewBox="0.00 0.00 428.00 173.80" xmlns="http://www.w3.org/2000/svg" xmlns:xlink="http://www.w3.org/1999/xlink">
<g id="graph0" class="graph" transform="scale(1 1) rotate(0) translate(4 169.8)">
<title>dependencies</title>
<polygon fill="white" stroke="transparent" points="-4,4 -4,-169.8 424,-169.8 424,4 -4,4"/>
<text text-anchor="middle" x="210" y="-8.2" font-family="sans-serif" font-size="14.00">dependencies</text>
<g id="clust1" class="cluster">
<title>cluster_AppModule</title>
<polygon fill="none" stroke="black" stroke-dasharray="1,5" points="8,-32.8 8,-157.8 412,-157.8 412,-32.8 8,-32.8"/>
</g>
<g id="clust3" class="cluster">
<title>cluster_AppModule_imports</title>
<polygon fill="none" stroke="black" points="154,-40.8 154,-92.8 404,-92.8 404,-40.8 154,-40.8"/>
</g>
<g id="clust6" class="cluster">
<title>cluster_AppModule_providers</title>
<polygon fill="none" stroke="black" points="16,-40.8 16,-92.8 146,-92.8 146,-40.8 16,-40.8"/>
</g>
<!-- DoctorsModule -->
<g id="node1" class="node">
<title>DoctorsModule</title>
<polygon fill="#8dd3c7" stroke="black" points="395.87,-84.8 392.87,-88.8 371.87,-88.8 368.87,-84.8 292.13,-84.8 292.13,-48.8 395.87,-48.8 395.87,-84.8"/>
<text text-anchor="middle" x="344" y="-62.6" font-family="Times,serif" font-size="14.00">DoctorsModule</text>
</g>
<!-- AppModule -->
<g id="node3" class="node">
<title>AppModule</title>
<polygon fill="#8dd3c7" stroke="black" points="259.66,-149.8 256.66,-153.8 235.66,-153.8 232.66,-149.8 176.34,-149.8 176.34,-113.8 259.66,-113.8 259.66,-149.8"/>
<text text-anchor="middle" x="218" y="-127.6" font-family="Times,serif" font-size="14.00">AppModule</text>
</g>
<!-- DoctorsModule&#45;&gt;AppModule -->
<g id="edge1" class="edge">
<title>DoctorsModule&#45;&gt;AppModule</title>
<path fill="none" stroke="black" d="M344,-84.91C344,-104.14 344,-131.8 344,-131.8 344,-131.8 269.96,-131.8 269.96,-131.8"/>
<polygon fill="black" stroke="black" points="269.96,-128.3 259.96,-131.8 269.96,-135.3 269.96,-128.3"/>
</g>
<!-- SpecialtyModule -->
<g id="node2" class="node">
<title>SpecialtyModule</title>
<polygon fill="#8dd3c7" stroke="black" points="273.65,-84.8 270.65,-88.8 249.65,-88.8 246.65,-84.8 162.35,-84.8 162.35,-48.8 273.65,-48.8 273.65,-84.8"/>
<text text-anchor="middle" x="218" y="-62.6" font-family="Times,serif" font-size="14.00">SpecialtyModule</text>
</g>
<!-- SpecialtyModule&#45;&gt;AppModule -->
<g id="edge2" class="edge">
<title>SpecialtyModule&#45;&gt;AppModule</title>
<path fill="none" stroke="black" d="M218,-84.91C218,-84.91 218,-103.79 218,-103.79"/>
<polygon fill="black" stroke="black" points="214.5,-103.79 218,-113.79 221.5,-103.79 214.5,-103.79"/>
</g>
<!-- AppService -->
<g id="node4" class="node">
<title>AppService</title>
<ellipse fill="#fdb462" stroke="black" cx="81" cy="-66.8" rx="56.74" ry="18"/>
<text text-anchor="middle" x="81" y="-62.6" font-family="Times,serif" font-size="14.00">AppService</text>
</g>
<!-- AppService&#45;&gt;AppModule -->
<g id="edge3" class="edge">
<title>AppService&#45;&gt;AppModule</title>
<path fill="none" stroke="black" d="M81,-84.91C81,-104.14 81,-131.8 81,-131.8 81,-131.8 166.15,-131.8 166.15,-131.8"/>
<polygon fill="black" stroke="black" points="166.15,-135.3 176.15,-131.8 166.15,-128.3 166.15,-135.3"/>
</g>
</g>
</svg>
