<?xml version="1.0" encoding="UTF-8" standalone="no"?>
<!DOCTYPE svg PUBLIC "-//W3C//DTD SVG 1.1//EN"
 "http://www.w3.org/Graphics/SVG/1.1/DTD/svg11.dtd">
<!-- Generated by graphviz version 2.47.3 (20210619.1520)
 -->
<!-- Title: dependencies Pages: 1 -->
<svg width="485pt" height="250pt"
 viewBox="0.00 0.00 485.00 249.80" xmlns="http://www.w3.org/2000/svg" xmlns:xlink="http://www.w3.org/1999/xlink">
<g id="graph0" class="graph" transform="scale(1 1) rotate(0) translate(4 245.8)">
<title>dependencies</title>
<polygon fill="white" stroke="transparent" points="-4,4 -4,-245.8 481,-245.8 481,4 -4,4"/>
<text text-anchor="middle" x="238.5" y="-8.2" font-family="sans-serif" font-size="14.00">dependencies</text>
<g id="clust1" class="cluster">
<title>cluster_AppModule</title>
<polygon fill="none" stroke="black" stroke-dasharray="1,5" points="8,-108.8 8,-233.8 412,-233.8 412,-108.8 8,-108.8"/>
</g>
<g id="clust3" class="cluster">
<title>cluster_AppModule_imports</title>
<polygon fill="none" stroke="black" points="154,-116.8 154,-168.8 404,-168.8 404,-116.8 154,-116.8"/>
</g>
<g id="clust6" class="cluster">
<title>cluster_AppModule_providers</title>
<polygon fill="none" stroke="black" points="16,-116.8 16,-168.8 146,-168.8 146,-116.8 16,-116.8"/>
</g>
<g id="clust7" class="cluster">
<title>cluster_DoctorsModule</title>
<polygon fill="none" stroke="black" stroke-dasharray="1,5" points="126,-32.8 126,-100.8 469,-100.8 469,-32.8 126,-32.8"/>
</g>
<g id="clust12" class="cluster">
<title>cluster_DoctorsModule_providers</title>
<polygon fill="none" stroke="black" points="134,-40.8 134,-92.8 461,-92.8 461,-40.8 134,-40.8"/>
</g>
<!-- DoctorsModule -->
<g id="node1" class="node">
<title>DoctorsModule</title>
<polygon fill="#8dd3c7" stroke="black" points="395.87,-160.8 392.87,-164.8 371.87,-164.8 368.87,-160.8 292.13,-160.8 292.13,-124.8 395.87,-124.8 395.87,-160.8"/>
<text text-anchor="middle" x="344" y="-138.6" font-family="Times,serif" font-size="14.00">DoctorsModule</text>
</g>
<!-- AppModule -->
<g id="node3" class="node">
<title>AppModule</title>
<polygon fill="#8dd3c7" stroke="black" points="259.66,-225.8 256.66,-229.8 235.66,-229.8 232.66,-225.8 176.34,-225.8 176.34,-189.8 259.66,-189.8 259.66,-225.8"/>
<text text-anchor="middle" x="218" y="-203.6" font-family="Times,serif" font-size="14.00">AppModule</text>
</g>
<!-- DoctorsModule&#45;&gt;AppModule -->
<g id="edge1" class="edge">
<title>DoctorsModule&#45;&gt;AppModule</title>
<path fill="none" stroke="black" d="M344,-160.91C344,-180.14 344,-207.8 344,-207.8 344,-207.8 269.96,-207.8 269.96,-207.8"/>
<polygon fill="black" stroke="black" points="269.96,-204.3 259.96,-207.8 269.96,-211.3 269.96,-204.3"/>
</g>
<!-- SpecialtyModule -->
<g id="node2" class="node">
<title>SpecialtyModule</title>
<polygon fill="#8dd3c7" stroke="black" points="273.65,-160.8 270.65,-164.8 249.65,-164.8 246.65,-160.8 162.35,-160.8 162.35,-124.8 273.65,-124.8 273.65,-160.8"/>
<text text-anchor="middle" x="218" y="-138.6" font-family="Times,serif" font-size="14.00">SpecialtyModule</text>
</g>
<!-- SpecialtyModule&#45;&gt;AppModule -->
<g id="edge2" class="edge">
<title>SpecialtyModule&#45;&gt;AppModule</title>
<path fill="none" stroke="black" d="M218,-160.91C218,-160.91 218,-179.79 218,-179.79"/>
<polygon fill="black" stroke="black" points="214.5,-179.79 218,-189.79 221.5,-179.79 214.5,-179.79"/>
</g>
<!-- AppService -->
<g id="node4" class="node">
<title>AppService</title>
<ellipse fill="#fdb462" stroke="black" cx="81" cy="-142.8" rx="56.74" ry="18"/>
<text text-anchor="middle" x="81" y="-138.6" font-family="Times,serif" font-size="14.00">AppService</text>
</g>
<!-- AppService&#45;&gt;AppModule -->
<g id="edge3" class="edge">
<title>AppService&#45;&gt;AppModule</title>
<path fill="none" stroke="black" d="M81,-160.91C81,-180.14 81,-207.8 81,-207.8 81,-207.8 166.15,-207.8 166.15,-207.8"/>
<polygon fill="black" stroke="black" points="166.15,-211.3 176.15,-207.8 166.15,-204.3 166.15,-211.3"/>
</g>
<!-- DoctorsService -->
<g id="node5" class="node">
<title>DoctorsService</title>
<ellipse fill="#fdb462" stroke="black" cx="382" cy="-66.8" rx="70.62" ry="18"/>
<text text-anchor="middle" x="382" y="-62.6" font-family="Times,serif" font-size="14.00">DoctorsService</text>
</g>
<!-- DoctorsService&#45;&gt;DoctorsModule -->
<g id="edge4" class="edge">
<title>DoctorsService&#45;&gt;DoctorsModule</title>
<path fill="none" stroke="black" d="M353.69,-83.29C353.69,-83.29 353.69,-114.75 353.69,-114.75"/>
<polygon fill="black" stroke="black" points="350.19,-114.75 353.69,-124.75 357.19,-114.75 350.19,-114.75"/>
</g>
<!-- SpecialtyService -->
<g id="node6" class="node">
<title>SpecialtyService</title>
<ellipse fill="#fdb462" stroke="black" cx="218" cy="-66.8" rx="75.86" ry="18"/>
<text text-anchor="middle" x="218" y="-62.6" font-family="Times,serif" font-size="14.00">SpecialtyService</text>
</g>
<!-- SpecialtyService&#45;&gt;DoctorsModule -->
<g id="edge5" class="edge">
<title>SpecialtyService&#45;&gt;DoctorsModule</title>
<path fill="none" stroke="black" d="M293.94,-66.8C299.32,-66.8 302.68,-66.8 302.68,-66.8 302.68,-66.8 302.68,-114.79 302.68,-114.79"/>
<polygon fill="black" stroke="black" points="299.18,-114.79 302.68,-124.79 306.18,-114.79 299.18,-114.79"/>
</g>
<!-- SpecialtyService&#45;&gt;SpecialtyModule -->
<g id="edge6" class="edge">
<title>SpecialtyService&#45;&gt;SpecialtyModule</title>
<path fill="none" stroke="black" d="M218,-84.81C218,-84.81 218,-114.65 218,-114.65"/>
<polygon fill="black" stroke="black" points="214.5,-114.65 218,-124.65 221.5,-114.65 214.5,-114.65"/>
</g>
</g>
</svg>
