<?xml version="1.0" encoding="UTF-8" standalone="no"?>
<!DOCTYPE svg PUBLIC "-//W3C//DTD SVG 1.1//EN"
 "http://www.w3.org/Graphics/SVG/1.1/DTD/svg11.dtd">
<!-- Generated by graphviz version 2.47.3 (20210619.1520)
 -->
<!-- Title: dependencies Pages: 1 -->
<svg width="367pt" height="174pt"
 viewBox="0.00 0.00 367.00 173.80" xmlns="http://www.w3.org/2000/svg" xmlns:xlink="http://www.w3.org/1999/xlink">
<g id="graph0" class="graph" transform="scale(1 1) rotate(0) translate(4 169.8)">
<title>dependencies</title>
<polygon fill="white" stroke="transparent" points="-4,4 -4,-169.8 363,-169.8 363,4 -4,4"/>
<text text-anchor="middle" x="179.5" y="-8.2" font-family="sans-serif" font-size="14.00">dependencies</text>
<g id="clust1" class="cluster">
<title>cluster_DoctorsModule</title>
<polygon fill="none" stroke="black" stroke-dasharray="1,5" points="8,-32.8 8,-157.8 351,-157.8 351,-32.8 8,-32.8"/>
</g>
<g id="clust6" class="cluster">
<title>cluster_DoctorsModule_providers</title>
<polygon fill="none" stroke="black" points="16,-40.8 16,-92.8 343,-92.8 343,-40.8 16,-40.8"/>
</g>
<!-- DoctorsService -->
<g id="node1" class="node">
<title>DoctorsService</title>
<ellipse fill="#fdb462" stroke="black" cx="264" cy="-66.8" rx="70.62" ry="18"/>
<text text-anchor="middle" x="264" y="-62.6" font-family="Times,serif" font-size="14.00">DoctorsService</text>
</g>
<!-- DoctorsModule -->
<g id="node3" class="node">
<title>DoctorsModule</title>
<polygon fill="#8dd3c7" stroke="black" points="233.87,-149.8 230.87,-153.8 209.87,-153.8 206.87,-149.8 130.13,-149.8 130.13,-113.8 233.87,-113.8 233.87,-149.8"/>
<text text-anchor="middle" x="182" y="-127.6" font-family="Times,serif" font-size="14.00">DoctorsModule</text>
</g>
<!-- DoctorsService&#45;&gt;DoctorsModule -->
<g id="edge1" class="edge">
<title>DoctorsService&#45;&gt;DoctorsModule</title>
<path fill="none" stroke="black" d="M213.69,-79.64C213.69,-79.64 213.69,-103.32 213.69,-103.32"/>
<polygon fill="black" stroke="black" points="210.19,-103.32 213.69,-113.32 217.19,-103.32 210.19,-103.32"/>
</g>
<!-- SpecialtyService -->
<g id="node2" class="node">
<title>SpecialtyService</title>
<ellipse fill="#fdb462" stroke="black" cx="100" cy="-66.8" rx="75.86" ry="18"/>
<text text-anchor="middle" x="100" y="-62.6" font-family="Times,serif" font-size="14.00">SpecialtyService</text>
</g>
<!-- SpecialtyService&#45;&gt;DoctorsModule -->
<g id="edge2" class="edge">
<title>SpecialtyService&#45;&gt;DoctorsModule</title>
<path fill="none" stroke="black" d="M153,-79.95C153,-79.95 153,-103.49 153,-103.49"/>
<polygon fill="black" stroke="black" points="149.5,-103.49 153,-113.49 156.5,-103.49 149.5,-103.49"/>
</g>
</g>
</svg>
